PathFileType	4	(X/Y/Z)	/Users/itak/Documents/Research/Walk-IL/dataset/trc/00334_00011.trc
DataRate	CameraRate	NumFrames	NumMarkers	Units	OrigDataRate	OrigDataStartFrame	OrigNumFrames
100.000000	100.000000	4	54	mm	100.000000	72	582
Frame#	Time	RPSI			LPSI			L3			STRN			T10			C7			CLAV			RBAK			LBAK			LSHO			LUPA			LAEL			LAOL			LWTS			LWPS			LFRA			LHPS			LHTS			RSHO			RUPA			RAEL			RAOL			RWTS			RWPS			RFRA			RIFD			RHTS			RHPS			RBHD			LFHD			RFHD			LBHD			LHIP			RHIP			RASI			LASI			LKNE			LTHI			LANK			LTIP			LTOE			LMT1			LMT5			LHEE			RKNE			RTHI			RANK			RTIP			RTOE			RMT1			RMT5			RHEE			LIFD			*53			
		X1	Y1	Z1	X2	Y2	Z2	X3	Y3	Z3	X4	Y4	Z4	X5	Y5	Z5	X6	Y6	Z6	X7	Y7	Z7	X8	Y8	Z8	X9	Y9	Z9	X10	Y10	Z10	X11	Y11	Z11	X12	Y12	Z12	X13	Y13	Z13	X14	Y14	Z14	X15	Y15	Z15	X16	Y16	Z16	X17	Y17	Z17	X18	Y18	Z18	X19	Y19	Z19	X20	Y20	Z20	X21	Y21	Z21	X22	Y22	Z22	X23	Y23	Z23	X24	Y24	Z24	X25	Y25	Z25	X26	Y26	Z26	X27	Y27	Z27	X28	Y28	Z28	X29	Y29	Z29	X30	Y30	Z30	X31	Y31	Z31	X32	Y32	Z32	X33	Y33	Z33	X34	Y34	Z34	X35	Y35	Z35	X36	Y36	Z36	X37	Y37	Z37	X38	Y38	Z38	X39	Y39	Z39	X40	Y40	Z40	X41	Y41	Z41	X42	Y42	Z42	X43	Y43	Z43	X44	Y44	Z44	X45	Y45	Z45	X46	Y46	Z46	X47	Y47	Z47	X48	Y48	Z48	X49	Y49	Z49	X50	Y50	Z50	X51	Y51	Z51	X52	Y52	Z52	X53	Y53	Z53	X54	Y54	Z54	

73	0.72	869.3683471679688	971.9671020507812	173.2681274414062	863.2864990234375	971.8884887695312	45.09975051879883	864.9290161132812	1022.189270019531	113.3334503173828	1081.114379882812	1215.367919921875	90.82546997070312	843.4274291992188	1142.130981445312	102.9370956420898	873.0896606445312	1390.9375	82.218994140625	1032.768676757812	1338.33447265625	85.93747711181641	832.0936889648438	1252.226928710938	155.4644012451172	864.4912719726562	1351.889282226562	-19.03495597839355	949.2715454101562	1371.700317382812	-76.02153015136719	941.4085693359375	1249.019409179688	-141.2765808105469	977.7242431640625	1045.994506835938	-143.8909912109375	910.1815185546875	1030.524047851562	-93.98600006103516	1078.315063476562	808.7174682617188	-78.62125396728516	1047.931030273438	794.8973999023438	-138.8973693847656	999.7661743164062	942.7075805664062	-144.7855377197266	1046.587036132812	724.7420043945312	-132.1460571289062	1094.951049804688	730.01123046875	-90.73016357421875	938.3192138671875	1382.753051757812	244.4546203613281	936.1429443359375	1317.670288085938	311.6796264648438	978.0079345703125	1049.479614257812	336.4667053222656	925.3772583007812	1039.904174804688	257.683837890625	1097.287231445312	833.16162109375	257.6704406738281	1077.978515625	814.0344848632812	329.6768798828125	1010.713562011719	984.0757446289062	338.0583190917969	1123.011108398438	658.53173828125	261.0344543457031	1133.219848632812	732.4083251953125	262.8470458984375	1096.561401367188	731.0252685546875	321.7997741699219	899.5728759765625	1593.963012695312	162.2375183105469	1066.640380859375	1622.535400390625	41.29663467407227	1057.744140625	1622.173828125	142.2349395751953	884.7078857421875	1586.676147460938	18.34720611572266	944.2166748046875	912.38720703125	-61.53750991821289	951.740478515625	915.748779296875	278.6741638183594	1055.149047851562	945.34765625	232.3752288818359	1067.340454101562	939.32861328125	-8.414281845092773	968.6177368164062	453.6778564453125	-42.89516830444336	977.6317138671875	593.4946899414062	-54.33210372924805	877.658447265625	41.69989013671875	-21.80766105651855	921.5648193359375	240.1520080566406	-44.53971862792969	1085.099731445312	31.38704109191895	31.68332481384277	1015.108764648438	20.25754547119141	73.44720458984375	1002.252868652344	36.11183547973633	-37.98557662963867	844.9860229492188	35.34270477294922	45.60683441162109	962.3624877929688	452.5195007324219	249.5355529785156	1015.222229003906	708.5814208984375	275.4925231933594	892.0182495117188	42.28645324707031	218.8591918945312	962.31640625	334.3109436035156	238.8773956298828	1082.3583984375	32.48818206787109	156.7979888916016	1023.994445800781	28.93840026855469	118.8476943969727	993.0081787109375	28.35530853271484	232.0663604736328	839.3245849609375	44.15818405151367	173.1547393798828	1086.72119140625	647.3394775390625	-70.14630889892578	nan	nan	nan	
74	0.73	869.2559204101562	971.9130249023438	173.3125152587891	863.11083984375	971.8795166015625	45.07389450073242	864.7850341796875	1022.176513671875	113.3419036865234	1080.95361328125	1215.365966796875	90.84090423583984	843.3075561523438	1142.122436523438	102.9596252441406	872.964111328125	1390.958862304688	82.27092742919922	1032.669677734375	1338.3515625	85.90538787841797	831.9782104492188	1252.237670898438	155.4832763671875	864.344482421875	1351.906616210938	-18.99992370605469	949.1722412109375	1371.702392578125	-76.01971435546875	941.2195434570312	1248.983154296875	-141.2435607910156	977.5254516601562	1045.970336914062	-143.8342742919922	910.1015625	1030.4765625	-93.90784454345703	1078.1328125	808.6596069335938	-78.42083740234375	1047.847900390625	794.8574829101562	-138.754150390625	999.5977783203125	942.6802368164062	-144.6610717773438	1046.504272460938	724.7201538085938	-131.9519500732422	1094.868408203125	730.0586547851562	-90.55189514160156	938.1416625976562	1382.764770507812	244.4625396728516	935.977294921875	1317.680419921875	311.6544494628906	977.8302001953125	1049.460327148438	336.4405822753906	925.0740356445312	1039.927124023438	257.7406005859375	1097.13427734375	833.2171630859375	257.6783752441406	1077.83056640625	814.0144653320312	329.6320190429688	1010.538024902344	984.0853271484375	338.0944213867188	1122.850708007812	658.509765625	261.0098266601562	1133.086303710938	732.4282836914062	262.7894592285156	1096.370361328125	730.9794921875	321.7940979003906	899.4862060546875	1593.959350585938	162.2579956054688	1066.557250976562	1622.5029296875	41.35528564453125	1057.707763671875	1622.16015625	142.2062683105469	884.6134033203125	1586.699584960938	18.35616111755371	944.1468505859375	912.3843994140625	-61.48670196533203	951.5661010742188	915.7467041015625	278.6780700683594	1054.947143554688	945.3836059570312	232.4948120117188	1067.209838867188	939.3648071289062	-8.406428337097168	968.5585327148438	453.6853942871094	-42.88439559936523	977.4909057617188	593.5097045898438	-54.30319595336914	877.6557006835938	41.69450759887695	-21.80611801147461	921.552978515625	240.1467590332031	-44.531005859375	1085.099975585938	31.39005661010742	31.68113708496094	1015.108459472656	20.25159454345703	73.44944763183594	1002.254821777344	36.11882019042969	-37.980224609375	844.9915771484375	35.33438873291016	45.60520172119141	962.2741088867188	452.5249938964844	249.5881042480469	1015.1494140625	708.601318359375	275.5737915039062	891.99462890625	42.28287506103516	218.8628082275391	962.2501220703125	334.3401184082031	238.9314270019531	1082.351440429688	32.50691604614258	156.7977752685547	1023.983825683594	28.94099235534668	118.8470458984375	993.0053100585938	28.35009574890137	232.0706939697266	839.3232421875	44.14702606201172	173.1711273193359	1086.73388671875	647.3449096679688	-69.93567657470703	nan	nan	nan	
75	0.74	869.1329345703125	971.8496704101562	173.3492431640625	862.9302368164062	971.8721313476562	45.04404830932617	864.6253051757812	1022.161437988281	113.3486328125	1080.789794921875	1215.352294921875	90.86551666259766	843.199462890625	1142.112548828125	102.9843139648438	872.8353881835938	1390.997924804688	82.32660675048828	1032.564697265625	1338.368408203125	85.88221740722656	831.8924560546875	1252.251342773438	155.5052185058594	864.2094116210938	1351.922729492188	-18.95991325378418	949.073486328125	1371.704223632812	-76.01907348632812	941.0259399414062	1248.946166992188	-141.2109832763672	977.3217163085938	1045.941650390625	-143.7736358642578	910.0344848632812	1030.43359375	-93.82447052001953	1077.956420898438	808.5888061523438	-78.23179626464844	1047.755859375	794.8085327148438	-138.6106719970703	999.4273681640625	942.6435546875	-144.5300903320312	1046.430541992188	724.702880859375	-131.7648468017578	1094.780151367188	730.115478515625	-90.37134552001953	937.9745483398438	1382.772338867188	244.4710235595703	935.8229370117188	1317.686279296875	311.63330078125	977.6050415039062	1049.4267578125	336.4109802246094	924.780517578125	1039.946411132812	257.7942199707031	1096.967651367188	833.2630615234375	257.6921081542969	1077.659423828125	813.97998046875	329.58642578125	1010.35546875	984.0902709960938	338.124755859375	1122.693481445312	658.4898681640625	260.9860229492188	1132.929931640625	732.4299926757812	262.7385559082031	1096.117553710938	730.929443359375	321.8050537109375	899.373046875	1593.953247070312	162.2672576904297	1066.479125976562	1622.473754882812	41.40769577026367	1057.673828125	1622.151611328125	142.1755981445312	884.5184936523438	1586.717407226562	18.36487770080566	944.0821533203125	912.3757934570312	-61.44659805297852	951.3858032226562	915.748046875	278.6741027832031	1054.72265625	945.4186401367188	232.6215972900391	1067.080688476562	939.3961791992188	-8.399713516235352	968.5039672851562	453.6907043457031	-42.87263107299805	977.3486328125	593.5194091796875	-54.27845001220703	877.6531372070312	41.69021606445312	-21.80514907836914	921.5455322265625	240.1399688720703	-44.52236557006836	1085.098999023438	31.3935375213623	31.67996025085449	1015.109375	20.24766731262207	73.45274353027344	1002.254272460938	36.12459182739258	-37.97271347045898	844.9976806640625	35.32381057739258	45.60353469848633	962.1760864257812	452.5341491699219	249.6396789550781	1015.075317382812	708.6171875	275.6514282226562	891.9743041992188	42.27726745605469	218.8683166503906	962.1776123046875	334.3702392578125	238.9858093261719	1082.344848632812	32.52616500854492	156.7978515625	1023.973388671875	28.94395065307617	118.8438034057617	993.0013427734375	28.3442497253418	232.0753631591797	839.3236083984375	44.13595199584961	173.1871337890625	1086.761474609375	647.3782958984375	-69.76436614990234	nan	nan	nan	
76	0.75	868.9926147460938	971.7788696289062	173.3754425048828	862.7506713867188	971.8660278320312	45.01192855834961	864.4501953125	1022.145263671875	113.3535308837891	1080.629638671875	1215.331176757812	90.89384460449219	843.0997924804688	1142.103149414062	103.0101547241211	872.7034912109375	1391.05810546875	82.38439178466797	1032.450805664062	1338.383666992188	85.87210083007812	831.8276977539062	1252.268310546875	155.5282745361328	864.0870971679688	1351.9375	-18.9171028137207	948.973388671875	1371.705078125	-76.01808166503906	940.8312377929688	1248.91162109375	-141.1800079345703	977.1145629882812	1045.908569335938	-143.7088928222656	909.9661254882812	1030.39990234375	-93.73490142822266	1077.791748046875	808.5115966796875	-78.05857849121094	1047.65478515625	794.7539672851562	-138.4664611816406	999.2568359375	942.5985717773438	-144.3943176269531	1046.35888671875	724.6851806640625	-131.5850982666016	1094.68310546875	730.1776123046875	-90.18507385253906	937.81884765625	1382.775146484375	244.4806823730469	935.6805419921875	1317.687622070312	311.617431640625	977.33349609375	1049.380004882812	336.3851318359375	924.505615234375	1039.96044921875	257.8434143066406	1096.786254882812	833.2979125976562	257.7138366699219	1077.465698242188	813.9348754882812	329.5422973632812	1010.164123535156	984.08837890625	338.1482238769531	1122.547729492188	658.4805297851562	260.9611206054688	1132.75390625	732.4188842773438	262.6990356445312	1095.803588867188	730.8779296875	321.8338928222656	899.2305908203125	1593.945068359375	162.2661743164062	1066.402465820312	1622.445434570312	41.45719146728516	1057.640991210938	1622.14892578125	142.14306640625	884.423583984375	1586.728515625	18.37427711486816	944.023193359375	912.3612060546875	-61.41695022583008	951.1969604492188	915.7532958984375	278.6621398925781	1054.482055664062	945.4480590820312	232.7490234375	1066.954345703125	939.4199829101562	-8.390905380249023	968.45263671875	453.6932373046875	-42.86086273193359	977.2066040039062	593.5245361328125	-54.25870132446289	877.6507568359375	41.68608856201172	-21.8042106628418	921.5418090820312	240.1316070556641	-44.51396942138672	1085.096557617188	31.39709663391113	31.67905807495117	1015.111877441406	20.24595069885254	73.45732879638672	1002.250610351562	36.13008117675781	-37.96329116821289	845.0036010742188	35.3111572265625	45.60205459594727	962.072998046875	452.5455322265625	249.6899566650391	1014.995849609375	708.6287841796875	275.7221984863281	891.9569702148438	42.26993560791016	218.8763885498047	962.1011962890625	334.4032287597656	239.0397644042969	1082.33837890625	32.54657745361328	156.7982177734375	1023.962585449219	28.94759559631348	118.8394622802734	992.996337890625	28.33745002746582	232.0806121826172	839.3236083984375	44.12529373168945	173.2023773193359	1086.797241210938	647.4445190429688	-69.63525390625	nan	nan	nan	
